# xmcd
#
# Track frame offsets: 
#        150
#        15126
#        28240
#        42961
#        58846
#        73432
#        87475
#        102280
#        118075
#        133586
#        149399
#        165047
#        180120
#        195207
#        210711
#        226217
#        243068
#        258774
#        274439
#        287666
#
# Disc length: 4033 seconds
#
# Revision: 1
# Processed by: cddbd v1.5.2PL0 Copyright (c) Steve Scherf et al.
# Submitted via: ExactAudioCopyFreeDBPlugin 1.0
#
DISCID=120fbf14
DTITLE=Various Artist - 青春歌年鑑 戦前編3 昭和13年～14年 Disc 2
DYEAR=1900
DGENRE=Blues
TTITLE0=ディック・ミネ - 旅姿三人男
TTITLE1=霧島昇とミス・コロムビア - 一杯のコーヒーから
TTITLE2=中野忠晴 - チャイナ・タンゴ
TTITLE3=二葉あき子 - 古き花園
TTITLE4=岡晴夫 - 上海の花売娘
TTITLE5=山中みゆき - ほんとにほんとに御苦労ね
TTITLE6=塩まさる - 九段の母
TTITLE7=由利あけみ - 熱海ブルース
TTITLE8=渡辺はま子 - 何日君再來
TTITLE9=岡晴夫 - 港シャンソン
TTITLE10=渡辺はま子 - 長崎のお蝶さん
TTITLE11=高峰三枝子・霧島昇 - 純情二重奏
TTITLE12=北廉太郎 - 出船の唄
TTITLE13=小林千代子 - 旅のつばくろ
TTITLE14=由利あけみ - 長崎物語
TTITLE15=東海林太郎 - 名月赤城山
TTITLE16=田端義夫 - 大利根月夜
TTITLE17=田端義夫 - 島の船唄
TTITLE18=樋口静雄 - 戦友の唄
TTITLE19=上原敏 - 俺は船乗り
EXTD=
EXTT0=
EXTT1=
EXTT2=
EXTT3=
EXTT4=
EXTT5=
EXTT6=
EXTT7=
EXTT8=
EXTT9=
EXTT10=
EXTT11=
EXTT12=
EXTT13=
EXTT14=
EXTT15=
EXTT16=
EXTT17=
EXTT18=
EXTT19=
PLAYORDER=
